<?xml version="1.0" encoding="UTF-8"?>
<svg width="192" height="192" viewBox="0 0 192 192" fill="none" xmlns="http://www.w3.org/2000/svg">
  <circle cx="96" cy="96" r="92" fill="#1E40AF"/>
  <path d="M40.864 112L54.832 75.312H54.992L68.96 112H60.4L57.632 103.648H44.24L41.472 112H32.944L40.864 112ZM56 95.6L51.056 82.912H50.976L45.952 95.6H56Z" fill="white"/>
  <path d="M69.09 112V75.312H78L92.53 97.2H92.69V75.312H101.09V112H92.18L77.65 90.176H77.49V112H69.09Z" fill="white"/>
  <path d="M101.83 112V75.312H118.15C121.163 75.312 123.67 75.7973 125.67 76.768C127.67 77.7387 129.163 79.1467 130.15 80.992C131.136 82.8373 131.63 85.04 131.63 87.6C131.63 90.16 131.123 92.3627 130.11 94.208C129.096 96.0533 127.576 97.4613 125.55 98.432C123.523 99.4027 121.003 99.888 117.99 99.888H110.23V112H101.83ZM110.23 93.2H117.67C119 93.2 120.056 92.7627 120.83 91.888C121.603 91.0133 121.99 89.6267 121.99 87.744C121.99 85.9147 121.603 84.5387 120.83 83.616C120.056 82.6933 119 82.232 117.67 82.232H110.23V93.2Z" fill="white"/>
</svg> 