<?xml version="1.0" encoding="UTF-8"?>
<svg width="512" height="512" viewBox="0 0 512 512" fill="none" xmlns="http://www.w3.org/2000/svg">
  <circle cx="256" cy="256" r="246" fill="#1E40AF"/>
  <path d="M109.04 300L145.888 201.6H146.304L183.152 300H161.067L153.688 277.6H118.112L110.733 300H88.648L109.04 300ZM149.333 255.6L136.148 221.6H135.944L122.56 255.6H149.333Z" fill="white"/>
  <path d="M184.24 300V201.6H208L246.08 260H246.48V201.6H269.573V300H245.813L207.733 241.067H207.333V300H184.24Z" fill="white"/>
  <path d="M271.547 300V201.6H315.067C323.102 201.6 329.653 203.067 334.72 206C339.787 208.933 343.493 213.067 345.84 218.4C348.187 223.733 349.36 229.867 349.36 236.8C349.36 243.733 348.16 249.867 345.76 255.2C343.36 260.533 339.573 264.667 334.4 267.6C329.227 270.533 322.64 272 314.64 272H294.64V300H271.547ZM294.64 252H313.84C317.333 252 319.973 250.8 321.76 248.4C323.547 246 324.44 242.267 324.44 237.2C324.44 232.4 323.547 228.8 321.76 226.4C319.973 224 317.333 222.8 313.84 222.8H294.64V252Z" fill="white"/>
</svg> 