<svg width="32" height="32" viewBox="0 0 32 32" fill="none" xmlns="http://www.w3.org/2000/svg">
  <circle cx="16" cy="16" r="15" fill="#1E40AF"/>
  <path d="M9.88 21L12.46 14.31H12.5L15.08 21H13.45L12.88 19.59H10.07L9.5 21H7.87L9.88 21ZM12.5 18.35L11.51 15.76H11.48L10.48 18.35H12.5Z" fill="white"/>
  <path d="M15.09 21V14.31H16.8L19.55 18.65H19.59V14.31H21.22V21H19.51L16.76 16.67H16.72V21H15.09Z" fill="white"/>
  <path d="M21.59 21V14.31H24.7C25.31 14.31 25.82 14.43 26.24 14.67C26.65 14.91 26.96 15.24 27.17 15.65C27.38 16.06 27.48 16.53 27.48 17.05C27.48 17.58 27.38 18.05 27.16 18.46C26.95 18.86 26.63 19.18 26.21 19.42C25.79 19.66 25.27 19.78 24.65 19.78H23.22V21H21.59ZM23.22 18.5H24.54C24.87 18.5 25.13 18.39 25.3 18.16C25.48 17.94 25.56 17.62 25.56 17.21C25.56 16.83 25.47 16.53 25.29 16.31C25.12 16.09 24.86 15.98 24.53 15.98H23.22V18.5Z" fill="white"/>
</svg> 